<svg width="208" height="208" viewBox="0 0 208 208" fill="none" xmlns="http://www.w3.org/2000/svg">
<path d="M104 208C161.438 208 208 161.438 208 104C208 46.5624 161.438 0 104 0C46.5624 0 0 46.5624 0 104C0 161.438 46.5624 208 104 208Z" fill="#E6E6E6" fill-opacity="0.2"/>
<path d="M103.621 190.443C151.571 190.443 190.443 151.571 190.443 103.621C190.443 55.6711 151.571 16.7998 103.621 16.7998C55.6711 16.7998 16.7998 55.6711 16.7998 103.621C16.7998 151.571 55.6711 190.443 103.621 190.443Z" fill="#E6E6E6"/>
<path d="M144 73.427L134.573 64L104 94.5729L73.427 64L64 73.427L94.5729 104L64 134.573L73.427 144L104 113.427L134.573 144L144 134.573L113.427 104L144 73.427Z" fill="white"/>
</svg>
